<svg width="122" height="122" viewBox="0 0 122 122" fill="none" xmlns="http://www.w3.org/2000/svg">
<path d="M61 26.6875C79.9502 26.6875 95.3125 42.0497 95.3125 61C95.3125 79.9502 79.9502 95.3125 61 95.3125C42.0497 95.3125 26.6875 79.9502 26.6875 61C26.6875 42.0497 42.0497 26.6875 61 26.6875Z" fill="url(#paint0_radial_2_112)"/>
<path d="M61 101.031C64.1585 101.031 66.7188 103.592 66.7188 106.75V112.469C66.7188 115.627 64.1585 118.188 61 118.188C57.8415 118.188 55.2813 115.627 55.2813 112.469V106.75C55.2813 103.592 57.8415 101.031 61 101.031ZM97.3941 89.3067L101.438 93.3504C103.671 95.5836 103.671 99.2041 101.438 101.438C99.2047 103.671 95.5836 103.671 93.3504 101.438L89.3067 97.3941C87.0735 95.1604 87.0735 91.5399 89.3067 89.3067C91.5399 87.0729 95.161 87.0729 97.3941 89.3067ZM24.6058 89.3067C26.8391 87.0729 30.46 87.0729 32.6933 89.3067C34.7548 91.3681 34.9134 94.6121 33.1691 96.8554L32.6933 97.3941L28.6495 101.438C26.4163 103.671 22.7953 103.671 20.562 101.438C18.5005 99.3765 18.3419 96.1325 20.0863 93.8891L20.562 93.3504L24.6058 89.3067ZM15.25 55.2813C18.4084 55.2813 20.9688 57.8415 20.9688 61C20.9688 63.9329 18.7611 66.35 15.9169 66.6803L15.25 66.7188H9.53125C6.3729 66.7188 3.8125 64.1585 3.8125 61C3.8125 58.0671 6.02019 55.6501 8.86433 55.3197L9.53125 55.2813H15.25ZM112.469 55.2813C115.627 55.2813 118.188 57.8415 118.188 61C118.188 64.1585 115.627 66.7188 112.469 66.7188H106.75C103.592 66.7188 101.031 64.1585 101.031 61C101.031 57.8415 103.592 55.2813 106.75 55.2813H112.469ZM20.5622 20.562C22.6237 18.5005 25.8676 18.342 28.111 20.0863L28.6497 20.562L32.6935 24.6058C34.9268 26.8391 34.9268 30.46 32.6935 32.6933C30.632 34.7548 27.3881 34.9134 25.1447 33.1691L24.6059 32.6933L20.5622 28.6495C18.3289 26.4163 18.3289 22.7953 20.5622 20.562ZM101.438 20.5621C103.671 22.7954 103.671 26.4164 101.438 28.6497L97.3941 32.6935C95.1604 34.9267 91.5399 34.9267 89.3067 32.6935C87.0729 30.4601 87.0729 26.8392 89.3067 24.6059L93.3504 20.5621C95.5836 18.3288 99.2041 18.3288 101.438 20.5621ZM61 3.8125C64.1585 3.8125 66.7188 6.3729 66.7188 9.53125V15.25C66.7188 18.4084 64.1585 20.9688 61 20.9688C57.8415 20.9688 55.2813 18.4084 55.2813 15.25V9.53125C55.2813 6.3729 57.8415 3.8125 61 3.8125Z" fill="url(#paint1_linear_2_112)"/>
<defs>
<radialGradient id="paint0_radial_2_112" cx="0" cy="0" r="1" gradientUnits="userSpaceOnUse" gradientTransform="translate(37.1719 35.2656) rotate(43.0203) scale(79.5183)">
<stop offset="0.193671" stop-color="#FFE475"/>
<stop offset="0.529275" stop-color="#FFB029"/>
<stop offset="0.780467" stop-color="#FF9100"/>
</radialGradient>
<linearGradient id="paint1_linear_2_112" x1="3.09765" y1="3.09766" x2="118.902" y2="118.902" gradientUnits="userSpaceOnUse">
<stop offset="0.166667" stop-color="#FFE475"/>
<stop offset="0.798611" stop-color="#FFBF29"/>
</linearGradient>
</defs>
</svg>
