<svg width="35" height="33" viewBox="0 0 35 33" fill="none" xmlns="http://www.w3.org/2000/svg">
<path d="M17.5003 6.04569L15.9318 4.42429C12.2501 0.618305 5.49931 1.9317 3.06236 6.71669C1.91827 8.96728 1.66013 12.2167 3.74926 16.3637C5.76182 20.3566 9.94882 25.1394 17.5003 30.349C25.0518 25.1394 29.2366 20.3566 31.2513 16.3637C33.3405 12.2145 33.0845 8.96728 31.9382 6.71669C29.5013 1.9317 22.7505 0.616105 19.0688 4.42209L17.5003 6.04569ZM17.5003 33C-16.0417 10.7097 7.1728 -6.68787 17.1153 2.5147C17.2465 2.63643 17.3749 2.76183 17.5003 2.8909C17.6235 2.76102 17.752 2.63625 17.8853 2.5169C27.8256 -6.69227 51.0423 10.7075 17.5003 33Z" fill="black"/>
</svg>
