<svg width="46" height="42" viewBox="0 0 46 42" fill="none" xmlns="http://www.w3.org/2000/svg">
<path d="M25.168 0.891555C24.5929 0.320693 23.8131 0 23 0C22.1869 0 21.4071 0.320693 20.8321 0.891555L0.449632 21.1291C0.307081 21.2706 0.194004 21.4387 0.116856 21.6237C0.0397076 21.8086 0 22.0069 0 22.207C0 22.4072 0.0397076 22.6055 0.116856 22.7904C0.194004 22.9754 0.307081 23.1434 0.449632 23.285C0.737527 23.5709 1.128 23.7315 1.53514 23.7315C1.73674 23.7315 1.93636 23.6921 2.12261 23.6155C2.30887 23.5389 2.4781 23.4266 2.62065 23.285L4.60155 21.3148V37.4324C4.60155 38.6438 5.08615 39.8056 5.94875 40.6622C6.81134 41.5188 7.98127 42 9.20116 42H36.7988C38.0187 42 39.1887 41.5188 40.0513 40.6622C40.9139 39.8056 41.3985 38.6438 41.3985 37.4324V21.3148L43.3794 23.285C43.6672 23.5709 44.0577 23.7315 44.4649 23.7315C44.872 23.7315 45.2625 23.5709 45.5504 23.285C45.8383 22.9991 46 22.6114 46 22.207C46 21.8027 45.8383 21.415 45.5504 21.1291L38.332 13.964V3.93663C38.332 3.53282 38.1705 3.14556 37.883 2.86003C37.5954 2.5745 37.2055 2.41409 36.7988 2.41409H33.7324C33.3258 2.41409 32.9358 2.5745 32.6483 2.86003C32.3608 3.14556 32.1992 3.53282 32.1992 3.93663V7.8739L25.168 0.891555ZM38.332 18.2698V37.4324C38.332 37.8362 38.1705 38.2235 37.883 38.509C37.5954 38.7945 37.2055 38.9549 36.7988 38.9549H9.20116C8.79453 38.9549 8.40456 38.7945 8.11702 38.509C7.82949 38.2235 7.66796 37.8362 7.66796 37.4324V18.2698L23 3.04442L38.332 18.2698Z" fill="black"/>
</svg>
